<svg width="28" height="28" viewBox="0 0 28 28" fill="none" xmlns="http://www.w3.org/2000/svg">
<path opacity="0.12" fill-rule="evenodd" clip-rule="evenodd" d="M22.6085 26.8014C23.0085 26.6492 23.349 26.3087 24.03 25.6277L25.6277 24.03L25.6277 24.03C26.3087 23.349 26.6492 23.0085 26.8015 22.6084C26.9357 22.2558 26.9675 21.8724 26.893 21.5025C26.8086 21.0828 26.5287 20.691 25.9689 19.9073L24.3588 17.6531C24.0015 17.1529 23.9061 16.5183 24.0224 15.9146C24.1439 15.2838 24.2075 14.6324 24.2075 13.9661C24.2075 13.2998 24.1439 12.6484 24.0224 12.0176C23.9061 11.414 24.0015 10.7794 24.3588 10.2792L25.9689 8.02511C26.5287 7.24142 26.8085 6.84958 26.893 6.42993C26.9674 6.06002 26.9357 5.6766 26.8014 5.32395C26.6492 4.9239 26.3087 4.5834 25.6277 3.9024L24.03 2.30471L24.03 2.3047C23.349 1.62371 23.0085 1.28322 22.6084 1.13095C22.2558 0.996716 21.8724 0.964983 21.5025 1.03941C21.0828 1.12385 20.691 1.40373 19.9073 1.96351L17.6534 3.57343C17.1531 3.93075 16.5185 4.02612 15.9149 3.90983C15.284 3.78829 14.6325 3.72464 13.9661 3.72464C13.2998 3.72464 12.6483 3.78827 12.0175 3.90978C11.4139 4.02606 10.7793 3.93069 10.279 3.57337L8.02504 1.96339C7.24136 1.40362 6.84951 1.12373 6.42987 1.0393C6.05995 0.964866 5.67653 0.996599 5.32389 1.13083C4.92383 1.28311 4.58333 1.6236 3.90234 2.3046L2.30465 3.90229C1.62365 4.58328 1.28316 4.92378 1.13088 5.32383C0.996651 5.67648 0.964918 6.0599 1.03935 6.42982C1.12378 6.84946 1.40367 7.24131 1.96344 8.02499L3.57339 10.2789C3.9307 10.7792 4.02607 11.4138 3.90979 12.0174C3.78826 12.6483 3.72463 13.2998 3.72463 13.9661C3.72463 14.6325 3.78827 15.284 3.90981 15.9149C4.0261 16.5185 3.93073 17.1531 3.57341 17.6534L1.96339 19.9074C1.40362 20.6911 1.12373 21.0829 1.0393 21.5026C0.964866 21.8725 0.996599 22.2559 1.13083 22.6086C1.28311 23.0086 1.6236 23.3491 2.3046 24.0301L3.90229 25.6278C4.58328 26.3088 4.92378 26.6493 5.32383 26.8016C5.67648 26.9358 6.0599 26.9675 6.42982 26.8931C6.84946 26.8087 7.24131 26.5288 8.02499 25.969L10.2792 24.3588C10.7794 24.0015 11.414 23.9062 12.0177 24.0224C12.6484 24.1439 13.2998 24.2075 13.9661 24.2075C14.6324 24.2075 15.2839 24.1439 15.9147 24.0224C16.5184 23.9061 17.153 24.0015 17.6532 24.3588L19.9073 25.9689C20.691 26.5287 21.0829 26.8085 21.5025 26.893C21.8724 26.9674 22.2558 26.9357 22.6085 26.8014ZM13.9662 17.8065C16.0872 17.8065 17.8067 16.087 17.8067 13.966C17.8067 11.8449 16.0872 10.1254 13.9662 10.1254C11.8451 10.1254 10.1256 11.8449 10.1256 13.966C10.1256 16.087 11.8451 17.8065 13.9662 17.8065Z" fill="#E8EAED"/>
<path d="M24.03 25.6277L23.4997 25.0973L23.4997 25.0973L24.03 25.6277ZM22.6085 26.8014L22.8753 27.5024L22.8753 27.5024L22.6085 26.8014ZM25.6277 24.03L26.1581 24.5603L26.1581 24.5603L25.6277 24.03ZM25.6277 24.03L26.1581 24.5603L26.1581 24.5603L25.6277 24.03ZM26.8015 22.6084L26.1006 22.3416L26.1006 22.3416L26.8015 22.6084ZM26.893 21.5025L27.6283 21.3545L27.6283 21.3545L26.893 21.5025ZM25.9689 19.9073L25.3586 20.3432L25.3586 20.3432L25.9689 19.9073ZM24.3588 17.6531L23.7485 18.089L23.7485 18.089L24.3588 17.6531ZM24.0224 15.9146L24.7588 16.0565L24.7588 16.0565L24.0224 15.9146ZM24.0224 12.0176L23.2859 12.1595L23.2859 12.1595L24.0224 12.0176ZM24.3588 10.2792L24.9691 10.7151L24.9691 10.7151L24.3588 10.2792ZM25.9689 8.02511L26.5792 8.46103L26.5792 8.46103L25.9689 8.02511ZM26.893 6.42993L27.6282 6.57787L27.6282 6.57787L26.893 6.42993ZM26.8014 5.32395L27.5024 5.05715L27.5024 5.05714L26.8014 5.32395ZM25.6277 3.9024L25.0973 4.43273L25.0973 4.43273L25.6277 3.9024ZM24.03 2.30471L24.5603 1.77438C24.5566 1.77062 24.5528 1.7669 24.5489 1.76322L24.03 2.30471ZM24.03 2.3047L23.4996 2.83503C23.5034 2.83879 23.5072 2.84251 23.511 2.84619L24.03 2.3047ZM22.6084 1.13095L22.3416 1.83188L22.3416 1.83188L22.6084 1.13095ZM21.5025 1.03941L21.6504 1.77468L21.6504 1.77468L21.5025 1.03941ZM19.9073 1.96351L19.4714 1.35321L19.4714 1.35321L19.9073 1.96351ZM17.6534 3.57343L18.0893 4.18373L18.0893 4.18373L17.6534 3.57343ZM15.9149 3.90983L15.773 4.64628L15.773 4.64628L15.9149 3.90983ZM12.0175 3.90978L12.1594 4.64625L12.1594 4.64625L12.0175 3.90978ZM10.279 3.57337L9.84308 4.18367L9.84309 4.18367L10.279 3.57337ZM8.02504 1.96339L8.46097 1.35309L8.46097 1.35309L8.02504 1.96339ZM6.42987 1.0393L6.28193 1.77456L6.28193 1.77456L6.42987 1.0393ZM5.32389 1.13083L5.05708 0.42989L5.05708 0.42989L5.32389 1.13083ZM3.90234 2.3046L3.37201 1.77427L3.37201 1.77427L3.90234 2.3046ZM2.30465 3.90229L2.83498 4.43262L2.83498 4.43262L2.30465 3.90229ZM1.13088 5.32383L1.83182 5.59064L1.83182 5.59064L1.13088 5.32383ZM1.03935 6.42982L1.77461 6.28188L1.77461 6.28188L1.03935 6.42982ZM1.96344 8.02499L2.57374 7.58906L2.57374 7.58906L1.96344 8.02499ZM3.57339 10.2789L2.96309 10.7148L2.96309 10.7148L3.57339 10.2789ZM3.90979 12.0174L4.64625 12.1593L4.64625 12.1593L3.90979 12.0174ZM3.90981 15.9149L3.17335 16.0567L3.17335 16.0567L3.90981 15.9149ZM3.57341 17.6534L2.96311 17.2174L2.96311 17.2174L3.57341 17.6534ZM1.96339 19.9074L2.57369 20.3433L2.57369 20.3433L1.96339 19.9074ZM1.0393 21.5026L1.77456 21.6505L1.0393 21.5026ZM1.13083 22.6086L1.83177 22.3417L1.83177 22.3417L1.13083 22.6086ZM2.3046 24.0301L2.83493 23.4998L2.83493 23.4998L2.3046 24.0301ZM3.90229 25.6278L3.37196 26.1581L3.37196 26.1581L3.90229 25.6278ZM5.32383 26.8016L5.05703 27.5025L5.05703 27.5025L5.32383 26.8016ZM6.42982 26.8931L6.57776 27.6284L6.57776 27.6284L6.42982 26.8931ZM8.02499 25.969L7.58906 25.3587L7.58906 25.3587L8.02499 25.969ZM10.2792 24.3588L10.7151 24.9691L10.7151 24.9691L10.2792 24.3588ZM12.0177 24.0224L12.1595 23.286L12.1595 23.286L12.0177 24.0224ZM15.9147 24.0224L16.0566 24.7588L16.0566 24.7588L15.9147 24.0224ZM17.6532 24.3588L18.0891 23.7485L18.0891 23.7485L17.6532 24.3588ZM19.9073 25.9689L20.3433 25.3586L20.3433 25.3586L19.9073 25.9689ZM21.5025 26.893L21.3546 27.6282L21.3546 27.6282L21.5025 26.893ZM23.4997 25.0973C23.1512 25.4458 22.9189 25.6775 22.7251 25.844C22.5385 26.0044 22.4287 26.0674 22.3417 26.1005L22.8753 27.5024C23.1883 27.3832 23.4489 27.1998 23.7027 26.9816C23.9495 26.7696 24.2278 26.4905 24.5604 26.158L23.4997 25.0973ZM25.0974 23.4997L23.4997 25.0973L24.5604 26.158L26.1581 24.5603L25.0974 23.4997ZM25.0974 23.4996L25.0974 23.4997L26.1581 24.5603L26.1581 24.5603L25.0974 23.4996ZM26.1006 22.3416C26.0674 22.4286 26.0045 22.5384 25.8441 22.725C25.6775 22.9188 25.4459 23.1512 25.0974 23.4996L26.1581 24.5603C26.4906 24.2278 26.7697 23.9494 26.9817 23.7027C27.1999 23.4488 27.3833 23.1883 27.5024 22.8752L26.1006 22.3416ZM26.1578 21.6504C26.2043 21.8816 26.1844 22.1212 26.1006 22.3416L27.5024 22.8752C27.687 22.3904 27.7306 21.8631 27.6283 21.3545L26.1578 21.6504ZM25.3586 20.3432C25.6451 20.7442 25.8354 21.0115 25.9678 21.23C26.0953 21.4405 26.1394 21.5591 26.1578 21.6504L27.6283 21.3545C27.5622 21.0261 27.4241 20.739 27.2507 20.4527C27.0821 20.1745 26.8526 19.854 26.5792 19.4714L25.3586 20.3432ZM23.7485 18.089L25.3586 20.3432L26.5792 19.4714L24.9691 17.2172L23.7485 18.089ZM23.2859 15.7728C23.1383 16.5392 23.2505 17.3919 23.7485 18.089L24.9691 17.2172C24.7524 16.9138 24.6739 16.4973 24.7588 16.0565L23.2859 15.7728ZM23.4575 13.9661C23.4575 14.5845 23.3985 15.1885 23.2859 15.7728L24.7588 16.0565C24.8893 15.3792 24.9575 14.6802 24.9575 13.9661H23.4575ZM23.2859 12.1595C23.3985 12.7438 23.4575 13.3477 23.4575 13.9661H24.9575C24.9575 13.252 24.8893 12.5531 24.7589 11.8758L23.2859 12.1595ZM23.7485 9.84326C23.2506 10.5404 23.1383 11.393 23.2859 12.1595L24.7589 11.8758C24.674 11.435 24.7525 11.0184 24.9691 10.7151L23.7485 9.84326ZM25.3586 7.58918L23.7485 9.84326L24.9691 10.7151L26.5792 8.46103L25.3586 7.58918ZM26.1577 6.28199C26.1393 6.37326 26.0953 6.49188 25.9677 6.70234C25.8353 6.92086 25.645 7.18816 25.3586 7.58918L26.5792 8.46103C26.8525 8.07837 27.082 7.7579 27.2506 7.47967C27.4241 7.19337 27.5622 6.90626 27.6282 6.57787L26.1577 6.28199ZM26.1005 5.59075C26.1844 5.81116 26.2042 6.0508 26.1577 6.28199L27.6282 6.57787C27.7306 6.06924 27.6869 5.54203 27.5024 5.05715L26.1005 5.59075ZM25.0973 4.43273C25.4458 4.7812 25.6775 5.01358 25.844 5.20736C26.0044 5.39399 26.0674 5.50375 26.1005 5.59076L27.5024 5.05714C27.3832 4.74409 27.1998 4.48358 26.9816 4.2297C26.7696 3.98297 26.4905 3.7046 26.158 3.37207L25.0973 4.43273ZM23.4997 2.83504L25.0973 4.43273L26.158 3.37207L24.5603 1.77438L23.4997 2.83504ZM23.511 2.84619L23.5111 2.84621L24.5489 1.76322L24.5489 1.76321L23.511 2.84619ZM22.3416 1.83188C22.4286 1.865 22.5384 1.92799 22.725 2.08837C22.9188 2.2549 23.1512 2.48656 23.4996 2.83503L24.5603 1.77437C24.2278 1.44185 23.9494 1.16278 23.7027 0.950742C23.4488 0.732563 23.1883 0.549164 22.8752 0.430006L22.3416 1.83188ZM21.6504 1.77468C21.8816 1.72816 22.1212 1.74799 22.3416 1.83188L22.8752 0.430007C22.3904 0.24544 21.8631 0.201807 21.3545 0.304147L21.6504 1.77468ZM20.3432 2.57381C20.7442 2.28737 21.0115 2.09705 21.23 1.96464C21.4405 1.83712 21.5591 1.79304 21.6504 1.77468L21.3545 0.304147C21.0261 0.37022 20.739 0.508297 20.4527 0.681772C20.1745 0.85036 19.854 1.07988 19.4714 1.35321L20.3432 2.57381ZM18.0893 4.18373L20.3432 2.57381L19.4714 1.35321L17.2175 2.96313L18.0893 4.18373ZM15.773 4.64628C16.5395 4.79395 17.3922 4.6817 18.0893 4.18373L17.2175 2.96313C16.9141 3.1798 16.4976 3.25829 16.0567 3.17337L15.773 4.64628ZM13.9661 4.47464C14.5846 4.47464 15.1886 4.5337 15.773 4.64628L16.0567 3.17337C15.3793 3.04287 14.6803 2.97464 13.9661 2.97464V4.47464ZM12.1594 4.64625C12.7437 4.53369 13.3476 4.47464 13.9661 4.47464V2.97464C13.2519 2.97464 12.553 3.04285 11.8756 3.17332L12.1594 4.64625ZM9.84309 4.18367C10.5402 4.68163 11.3929 4.79389 12.1594 4.64625L11.8756 3.17332C11.4348 3.25823 11.0183 3.17974 10.7149 2.96307L9.84309 4.18367ZM7.58911 2.57369L9.84308 4.18367L10.7149 2.96307L8.46097 1.35309L7.58911 2.57369ZM6.28193 1.77456C6.37319 1.79292 6.49182 1.83701 6.70228 1.96453C6.9208 2.09694 7.18809 2.28725 7.58911 2.57369L8.46097 1.35309C8.0783 1.07976 7.75784 0.850244 7.4796 0.681655C7.19331 0.508181 6.90619 0.370104 6.57781 0.304031L6.28193 1.77456ZM5.59069 1.83177C5.81109 1.74787 6.05073 1.72804 6.28193 1.77456L6.57781 0.304031C6.06918 0.201691 5.54197 0.245324 5.05708 0.42989L5.59069 1.83177ZM4.43267 2.83493C4.78114 2.48646 5.01351 2.25479 5.20729 2.08826C5.39392 1.92787 5.50369 1.86489 5.59069 1.83177L5.05708 0.42989C4.74403 0.549049 4.48352 0.73245 4.22964 0.95063C3.98291 1.16267 3.70453 1.44174 3.37201 1.77427L4.43267 2.83493ZM2.83498 4.43262L4.43267 2.83493L3.37201 1.77427L1.77432 3.37196L2.83498 4.43262ZM1.83182 5.59064C1.86494 5.50364 1.92792 5.39387 2.08831 5.20724C2.25484 5.01346 2.48651 4.78109 2.83498 4.43262L1.77432 3.37196C1.4418 3.70448 1.16272 3.98285 0.950682 4.22959C0.732501 4.48347 0.549101 4.74398 0.429941 5.05703L1.83182 5.59064ZM1.77461 6.28188C1.72809 6.05068 1.74793 5.81104 1.83182 5.59064L0.429941 5.05703C0.245375 5.54192 0.201742 6.06912 0.304082 6.57776L1.77461 6.28188ZM2.57374 7.58906C2.2873 7.18804 2.09699 6.92075 1.96458 6.70223C1.83706 6.49177 1.79297 6.37314 1.77461 6.28188L0.304082 6.57776C0.370155 6.90614 0.508232 7.19326 0.681707 7.47955C0.850295 7.75779 1.07981 8.07825 1.35314 8.46092L2.57374 7.58906ZM4.18369 9.84298L2.57374 7.58906L1.35314 8.46092L2.96309 10.7148L4.18369 9.84298ZM4.64625 12.1593C4.7939 11.3928 4.68165 10.5401 4.18369 9.84298L2.96309 10.7148C3.17975 11.0182 3.25825 11.4347 3.17333 11.8755L4.64625 12.1593ZM4.47463 13.9661C4.47463 13.3476 4.53368 12.7436 4.64625 12.1593L3.17333 11.8755C3.04284 12.5529 2.97463 13.2519 2.97463 13.9661H4.47463ZM4.64627 15.773C4.53369 15.1886 4.47463 14.5846 4.47463 13.9661H2.97463C2.97463 14.6803 3.04285 15.3793 3.17335 16.0567L4.64627 15.773ZM4.18371 18.0893C4.68168 17.3921 4.79393 16.5395 4.64627 15.773L3.17335 16.0567C3.25827 16.4975 3.17978 16.9141 2.96311 17.2174L4.18371 18.0893ZM2.57369 20.3433L4.18371 18.0893L2.96311 17.2174L1.35309 19.4715L2.57369 20.3433ZM1.77456 21.6505C1.79292 21.5592 1.83701 21.4406 1.96453 21.2302C2.09694 21.0116 2.28725 20.7443 2.57369 20.3433L1.35309 19.4715C1.07976 19.8541 0.850244 20.1746 0.681655 20.4528C0.508181 20.7391 0.370104 21.0262 0.304031 21.3546L1.77456 21.6505ZM1.83177 22.3417C1.74787 22.1213 1.72804 21.8817 1.77456 21.6505L0.304031 21.3546C0.201691 21.8633 0.245324 22.3905 0.42989 22.8754L1.83177 22.3417ZM2.83493 23.4998C2.48646 23.1513 2.25479 22.9189 2.08826 22.7251C1.92787 22.5385 1.86489 22.4288 1.83177 22.3417L0.42989 22.8754C0.549049 23.1884 0.73245 23.4489 0.95063 23.7028C1.16267 23.9495 1.44174 24.2279 1.77427 24.5604L2.83493 23.4998ZM4.43262 25.0975L2.83493 23.4998L1.77427 24.5604L3.37196 26.1581L4.43262 25.0975ZM5.59064 26.1006C5.50364 26.0675 5.39387 26.0045 5.20724 25.8441C5.01346 25.6776 4.78109 25.4459 4.43262 25.0975L3.37196 26.1581C3.70448 26.4906 3.98285 26.7697 4.22959 26.9818C4.48347 27.1999 4.74398 27.3833 5.05703 27.5025L5.59064 26.1006ZM6.28188 26.1578C6.05068 26.2043 5.81104 26.1845 5.59064 26.1006L5.05703 27.5025C5.54192 27.6871 6.06912 27.7307 6.57776 27.6284L6.28188 26.1578ZM7.58906 25.3587C7.18804 25.6451 6.92075 25.8354 6.70223 25.9679C6.49177 26.0954 6.37314 26.1395 6.28188 26.1578L6.57776 27.6284C6.90614 27.5623 7.19326 27.4242 7.47955 27.2507C7.75779 27.0821 8.07825 26.8526 8.46092 26.5793L7.58906 25.3587ZM9.84328 23.7485L7.58906 25.3587L8.46092 26.5793L10.7151 24.9691L9.84328 23.7485ZM12.1595 23.286C11.393 23.1383 10.5404 23.2506 9.84328 23.7485L10.7151 24.9691C11.0185 24.7525 11.435 24.674 11.8758 24.7589L12.1595 23.286ZM13.9661 23.4575C13.3477 23.4575 12.7438 23.3985 12.1595 23.286L11.8758 24.7589C12.5531 24.8893 13.252 24.9575 13.9661 24.9575V23.4575ZM15.7728 23.2859C15.1885 23.3985 14.5845 23.4575 13.9661 23.4575V24.9575C14.6803 24.9575 15.3792 24.8893 16.0566 24.7588L15.7728 23.2859ZM18.0891 23.7485C17.392 23.2505 16.5393 23.1383 15.7728 23.2859L16.0566 24.7588C16.4974 24.6739 16.9139 24.7524 17.2173 24.9691L18.0891 23.7485ZM20.3433 25.3586L18.0891 23.7485L17.2173 24.9691L19.4714 26.5792L20.3433 25.3586ZM21.6504 26.1577C21.5592 26.1393 21.4406 26.0953 21.2301 25.9677C21.0116 25.8353 20.7443 25.645 20.3433 25.3586L19.4714 26.5792C19.8541 26.8525 20.1745 27.082 20.4528 27.2506C20.7391 27.4241 21.0262 27.5622 21.3546 27.6282L21.6504 26.1577ZM22.3417 26.1005C22.1213 26.1844 21.8816 26.2042 21.6504 26.1577L21.3546 27.6282C21.8632 27.7306 22.3904 27.6869 22.8753 27.5024L22.3417 26.1005ZM17.0567 13.966C17.0567 15.6728 15.673 17.0565 13.9662 17.0565V18.5565C16.5015 18.5565 18.5567 16.5012 18.5567 13.966H17.0567ZM13.9662 10.8754C15.673 10.8754 17.0567 12.2591 17.0567 13.966H18.5567C18.5567 11.4307 16.5015 9.37542 13.9662 9.37542V10.8754ZM10.8756 13.966C10.8756 12.2591 12.2593 10.8754 13.9662 10.8754V9.37542C11.4309 9.37542 9.37563 11.4307 9.37563 13.966H10.8756ZM13.9662 17.0565C12.2593 17.0565 10.8756 15.6728 10.8756 13.966H9.37563C9.37563 16.5012 11.4309 18.5565 13.9662 18.5565V17.0565Z" fill="#E8EAED"/>
</svg>
