<svg width="26" height="31" viewBox="0 0 26 31" fill="none" xmlns="http://www.w3.org/2000/svg">
<rect x="1" y="6" width="24" height="24" rx="5" stroke="#E8EAED" stroke-width="1.5" stroke-linecap="round" stroke-linejoin="round"/>
<path d="M2.80386 4.8623C3.65514 3.45364 4.08078 2.74931 4.66509 2.23782C5.18218 1.78517 5.78704 1.44397 6.44188 1.23554C7.18186 1 8.00481 1 9.65071 1H16.6714C18.4916 1 19.4016 1 20.2025 1.27983C20.9106 1.52725 21.554 1.93084 22.085 2.46069C22.6855 3.05992 23.0817 3.87926 23.8739 5.51792L24.2024 6.19752C24.5 6.81297 24.6488 7.1207 24.7536 7.44229C24.8468 7.72791 24.914 8.02134 24.9544 8.31902C25 8.6542 25 8.996 25 9.6796V22C25 24.8003 25 26.2004 24.455 27.27C23.9757 28.2108 23.2108 28.9757 22.27 29.455C21.2004 30 19.8003 30 17 30H9C6.19974 30 4.79961 30 3.73005 29.455C2.78924 28.9757 2.02433 28.2108 1.54497 27.27C1 26.2004 1 24.8003 1 22V10.0768C1 9.24698 1 8.83209 1.06634 8.42891C1.12523 8.07097 1.22291 7.7205 1.35763 7.3837C1.50938 7.00432 1.72397 6.64923 2.15315 5.93906L2.80386 4.8623Z" stroke="#E8EAED" stroke-width="1.5" stroke-linecap="round" stroke-linejoin="round"/>
<path opacity="0.12" d="M1 9.08101C1 7.7986 1 7.15739 1.15076 6.55744C1.28439 6.02566 1.50458 5.51947 1.80252 5.05916C2.13864 4.53985 2.60773 4.1027 3.54591 3.2284L3.63284 3.1474C4.48448 2.35375 4.9103 1.95692 5.39919 1.67367C5.83273 1.42249 6.30157 1.2379 6.78998 1.12609C7.34075 1 7.92281 1 9.08693 1H17.0928C18.2669 1 18.854 1 19.4079 1.12759C19.9385 1.24979 20.4455 1.45782 20.909 1.74347C21.3928 2.04169 21.8107 2.45404 22.6465 3.27874V3.27874C23.4978 4.11871 23.9234 4.53869 24.2315 5.02806C24.5265 5.49675 24.7416 6.0112 24.868 6.55039C25 7.11338 25 7.71133 25 8.90724V22C25 24.8003 25 26.2004 24.455 27.27C23.9757 28.2108 23.2108 28.9757 22.27 29.455C21.2004 30 19.8003 30 17 30H9C6.19974 30 4.79961 30 3.73005 29.455C2.78924 28.9757 2.02433 28.2108 1.54497 27.27C1 26.2004 1 24.8003 1 22V9.08101Z" fill="#E8EAED"/>
<circle cx="7.5" cy="24.5" r="1.5" fill="#E8EAED"/>
<circle cx="13.5" cy="18.5" r="1.5" fill="#E8EAED"/>
<circle cx="19.5" cy="12.5" r="1.5" fill="#E8EAED"/>
<ellipse cx="13.5" cy="3.5" rx="1.5" ry="0.5" fill="#D9D9D9"/>
</svg>
