<svg width="31" height="31" viewBox="0 0 31 31" fill="none" xmlns="http://www.w3.org/2000/svg">
<rect opacity="0.12" x="0.75" y="0.75" width="29.1667" height="29.1667" rx="5" fill="#E8EAED"/>
<path fill-rule="evenodd" clip-rule="evenodd" d="M8.75 7.38113e-08H8.71644C7.34472 -4.51575e-06 6.26929 -8.15163e-06 5.40494 0.070612C4.5248 0.142522 3.79769 0.291379 3.13955 0.626713C2.05762 1.17798 1.17798 2.05762 0.626713 3.13955C0.291379 3.79768 0.142522 4.52479 0.070612 5.40493C-8.15163e-06 6.26928 -4.51575e-06 7.34472 7.38113e-08 8.71643V8.74999V21.9167V21.9502C-4.51575e-06 23.3219 -8.15163e-06 24.3974 0.070612 25.2617C0.142522 26.1419 0.291379 26.869 0.626713 27.5271C1.17798 28.609 2.05762 29.4887 3.13955 30.04C3.79768 30.3753 4.52479 30.5241 5.40493 30.5961C6.26927 30.6667 7.34468 30.6667 8.71636 30.6667H8.71641H8.74999H21.9167H21.9502H21.9503C23.322 30.6667 24.3974 30.6667 25.2617 30.5961C26.1419 30.5241 26.869 30.3753 27.5271 30.04C28.609 29.4887 29.4887 28.609 30.04 27.5271C30.3753 26.869 30.5241 26.1419 30.5961 25.2617C30.6667 24.3974 30.6667 23.322 30.6667 21.9503V21.9503V21.9167V8.75V8.71642V8.71637C30.6667 7.34469 30.6667 6.26927 30.5961 5.40494C30.5241 4.52479 30.3753 3.79769 30.04 3.13955C29.4887 2.05762 28.609 1.17798 27.5271 0.626713C26.869 0.291379 26.1419 0.142522 25.2617 0.070612C24.3974 -8.15163e-06 23.3219 -4.51575e-06 21.9502 7.38113e-08H21.9167H8.75ZM3.82054 1.96322C4.23197 1.75359 4.7397 1.62996 5.52708 1.56563C6.32322 1.50058 7.33749 1.5 8.75 1.5H21.9167C23.3292 1.5 24.3434 1.50058 25.1396 1.56563C25.927 1.62996 26.4347 1.75359 26.8461 1.96322C27.6458 2.37068 28.296 3.02085 28.7034 3.82054C28.9131 4.23197 29.0367 4.7397 29.101 5.52708C29.1661 6.32322 29.1667 7.33749 29.1667 8.75V21.9167C29.1667 23.3292 29.1661 24.3435 29.101 25.1396C29.0367 25.927 28.9131 26.4347 28.7034 26.8461C28.296 27.6458 27.6458 28.296 26.8461 28.7034C26.4347 28.9131 25.927 29.0367 25.1396 29.101C24.3434 29.1661 23.3292 29.1667 21.9167 29.1667H8.74999C7.33749 29.1667 6.32322 29.1661 5.52708 29.101C4.7397 29.0367 4.23197 28.9131 3.82054 28.7034C3.02085 28.296 2.37068 27.6458 1.96322 26.8461C1.75359 26.4347 1.62996 25.927 1.56563 25.1396C1.50058 24.3434 1.5 23.3292 1.5 21.9167V8.74999C1.5 7.33749 1.50058 6.32322 1.56563 5.52708C1.62996 4.7397 1.75359 4.23197 1.96322 3.82054C2.37068 3.02085 3.02085 2.37068 3.82054 1.96322ZM14.4053 10.0302C14.6982 9.73728 14.6982 9.2624 14.4053 8.96951C14.1124 8.67662 13.6376 8.67663 13.3447 8.96952L7.51133 14.8029C7.21844 15.0958 7.21844 15.5707 7.51134 15.8636L13.3447 21.6969C13.6376 21.9898 14.1124 21.9898 14.4053 21.6969C14.6982 21.404 14.6982 20.9292 14.4053 20.6363L9.85233 16.0833H22.625C23.0392 16.0833 23.375 15.7475 23.375 15.3333C23.375 14.9191 23.0392 14.5833 22.625 14.5833H9.85231L14.4053 10.0302Z" fill="#E8EAED"/>
</svg>
