<svg width="18" height="20" viewBox="0 0 18 20" fill="none" xmlns="http://www.w3.org/2000/svg">
<path d="M18 14.5C18 14.88 17.79 15.21 17.47 15.38L9.57 19.82C9.41 19.94 9.21 20 9 20C8.79 20 8.59 19.94 8.43 19.82L0.530004 15.38C0.369683 15.2958 0.235516 15.1692 0.142077 15.014C0.048638 14.8589 -0.00049917 14.6811 3.82324e-06 14.5V5.5C3.82324e-06 5.12 0.210004 4.79 0.530004 4.62L8.43 0.18C8.59 0.0600001 8.79 0 9 0C9.21 0 9.41 0.0600001 9.57 0.18L17.47 4.62C17.79 4.79 18 5.12 18 5.5V14.5ZM9 2.15L2 6.09V13.91L9 17.85L16 13.91V6.09L9 2.15ZM11.93 6.27C12.6116 6.27 13.2653 6.54077 13.7473 7.02274C14.2292 7.5047 14.5 8.15839 14.5 8.84V11.5C14.5 12.9 13.35 14.05 11.93 14.05C10.5 14.05 9.36 12.9 9.36 11.5V8.84C9.36 8.15839 9.63077 7.5047 10.1127 7.02274C10.5947 6.54077 11.2484 6.27 11.93 6.27M11.92 7.71C11.34 7.71 10.86 8.18 10.86 8.77V11.53C10.86 12.12 11.34 12.6 11.92 12.6C12.5 12.6 13 12.12 13 11.53V8.77C13 8.18 12.5 7.71 11.92 7.71ZM8.45 12.76V13.96L3.31 13.93V12.91C3.31 12.91 6.74 9.58 6.75 8.57C6.75 7.33 5.73 7.46 5.73 7.46C5.73 7.46 4.75 7.5 4.64 8.71L3.14 8.76C3.14 8.76 3.18 6.26 5.83 6.26C8.2 6.26 8.23 8.04 8.23 8.5C8.23 10.18 5.15 12.77 5.15 12.77L8.45 12.76V12.76Z" fill="white"/>
<path opacity="0.12" d="M13.6355 16.45C16.6354 15.2409 22.5832 6.2439 9.69545 1.25849C9.4498 1.16347 9.32697 1.11595 9.1947 1.10206C9.08099 1.09012 8.95567 1.09911 8.84483 1.12717C8.7159 1.15981 8.5987 1.22573 8.36431 1.35758L2.63116 4.58247L2.63116 4.58247C2.03731 4.91651 1.74038 5.08353 1.52426 5.31981C1.33305 5.52885 1.18843 5.77613 1.09998 6.04527C1 6.34948 1 6.69016 1 7.37151V12.6285C1 13.3098 1 13.6505 1.09998 13.9547C1.18843 14.2239 1.33305 14.4711 1.52426 14.6802C1.74038 14.9165 2.03731 15.0835 2.63116 15.4175L7.44086 18.123C8.00976 18.443 8.2942 18.603 8.59591 18.6662C8.86292 18.7222 9.13855 18.7229 9.40585 18.6683C9.70789 18.6067 9.99318 18.4482 10.5638 18.1312L13.37 16.5722C13.4111 16.5494 13.4316 16.538 13.4482 16.5296C13.4702 16.5184 13.4703 16.5183 13.4929 16.5082C13.5099 16.5007 13.5517 16.4838 13.6355 16.45Z" fill="white"/>
</svg>
