<svg width="20" height="24" viewBox="0 0 20 24" fill="none" xmlns="http://www.w3.org/2000/svg">
<path opacity="0.12" d="M0.828117 4.24285C0.828117 3.19373 0.828117 2.66918 1.02003 2.26328C1.21789 1.84481 1.55477 1.50794 1.97323 1.31008C2.37913 1.11816 2.90369 1.11816 3.9528 1.11816V1.11816C5.00192 1.11816 5.52648 1.11816 5.93238 1.31008C6.35084 1.50794 6.68772 1.84481 6.88558 2.26328C7.07749 2.66918 7.07749 3.19374 7.07749 4.24285V20.3871C7.07749 21.4362 7.07749 21.9607 6.88558 22.3666C6.68772 22.7851 6.35084 23.122 5.93238 23.3198C5.52648 23.5118 5.00192 23.5118 3.9528 23.5118V23.5118C2.90369 23.5118 2.37913 23.5118 1.97323 23.3198C1.55477 23.122 1.21789 22.7851 1.02003 22.3666C0.828117 21.9607 0.828117 21.4362 0.828117 20.3871V4.24285Z" fill="#E8EAED"/>
<path fill-rule="evenodd" clip-rule="evenodd" d="M3.84621 0.0881344L3.87469 0.0881348L3.90316 0.0881344C4.40349 0.0881251 4.82113 0.0881173 5.16299 0.114317C5.51927 0.141622 5.85458 0.200593 6.17485 0.35202C6.75023 0.62407 7.21344 1.08728 7.48549 1.66266C7.63692 1.98293 7.69589 2.31824 7.72319 2.67452C7.74939 3.01637 7.74938 3.43401 7.74937 3.93434V3.96282V20.107V20.1355C7.74938 20.6359 7.74939 21.0535 7.72319 21.3953C7.69589 21.7516 7.63692 22.0869 7.48549 22.4072C7.21344 22.9826 6.75023 23.4458 6.17485 23.7178C5.85458 23.8693 5.51927 23.9282 5.16299 23.9555C4.82114 23.9817 4.4035 23.9817 3.90317 23.9817H3.87469H3.8462C3.34588 23.9817 2.92824 23.9817 2.58638 23.9555C2.23011 23.9282 1.8948 23.8693 1.57453 23.7178C0.999143 23.4458 0.535936 22.9826 0.263885 22.4072C0.112458 22.0869 0.0534876 21.7516 0.0261825 21.3953C-1.74642e-05 21.0535 -9.65595e-06 20.6358 -3.57628e-07 20.1355L0 20.107V3.96282L-3.57628e-07 3.93434C-9.65595e-06 3.43401 -1.74642e-05 3.01637 0.0261825 2.67452C0.0534876 2.31824 0.112458 1.98293 0.263885 1.66266C0.535936 1.08728 0.999143 0.62407 1.57453 0.35202C1.8948 0.200593 2.23011 0.141622 2.58638 0.114317C2.92824 0.0881173 3.34588 0.0881251 3.84621 0.0881344ZM2.70101 1.60993C2.43125 1.63061 2.30133 1.66759 2.21569 1.70808C1.95416 1.83174 1.74361 2.04229 1.61995 2.30383C1.57946 2.38946 1.54247 2.51939 1.5218 2.78914C1.50051 3.06685 1.5 3.42669 1.5 3.96282V20.107C1.5 20.6432 1.50051 21.003 1.5218 21.2807C1.54247 21.5505 1.57946 21.6804 1.61995 21.766C1.74361 22.0276 1.95416 22.2381 2.21569 22.3618C2.30133 22.4023 2.43125 22.4393 2.70101 22.4599C2.97872 22.4812 3.33855 22.4817 3.87469 22.4817C4.41082 22.4817 4.77066 22.4812 5.04837 22.4599C5.31812 22.4393 5.44804 22.4023 5.53368 22.3618C5.79522 22.2381 6.00577 22.0276 6.12943 21.766C6.16992 21.6804 6.2069 21.5505 6.22758 21.2807C6.24886 21.003 6.24937 20.6432 6.24937 20.107V3.96282C6.24937 3.42669 6.24886 3.06685 6.22758 2.78914C6.2069 2.51939 6.16992 2.38946 6.12943 2.30383C6.00577 2.04229 5.79522 1.83174 5.53368 1.70808C5.44804 1.66759 5.31812 1.63061 5.04837 1.60993C4.77066 1.58865 4.41082 1.58813 3.87469 1.58813C3.33855 1.58813 2.97872 1.58865 2.70101 1.60993Z" fill="#E8EAED"/>
<path opacity="0.12" d="M12.5775 4.15471C12.5775 3.1056 12.5775 2.58104 12.7694 2.17514C12.9673 1.75668 13.3041 1.4198 13.7226 1.22195C14.1285 1.03003 14.6531 1.03003 15.7022 1.03003V1.03003C16.7513 1.03003 17.2759 1.03003 17.6818 1.22195C18.1002 1.4198 18.4371 1.75668 18.6349 2.17514C18.8269 2.58104 18.8269 3.1056 18.8269 4.15472V20.2989C18.8269 21.3481 18.8269 21.8726 18.6349 22.2785C18.4371 22.697 18.1002 23.0339 17.6818 23.2317C17.2759 23.4236 16.7513 23.4236 15.7022 23.4236V23.4236C14.6531 23.4236 14.1285 23.4236 13.7226 23.2317C13.3041 23.0339 12.9673 22.697 12.7694 22.2785C12.5775 21.8726 12.5775 21.3481 12.5775 20.2989V4.15471Z" fill="#E8EAED"/>
<path fill-rule="evenodd" clip-rule="evenodd" d="M15.5956 -3.57628e-07L15.6241 0L15.6525 -3.57628e-07C16.1529 -9.65595e-06 16.5705 -1.74642e-05 16.9124 0.0261825C17.2686 0.0534876 17.604 0.112458 17.9242 0.263885C18.4996 0.535936 18.9628 0.999143 19.2349 1.57453C19.3863 1.8948 19.4453 2.23011 19.4726 2.58638C19.4988 2.92824 19.4988 3.34588 19.4987 3.8462V3.87469V20.0189V20.0474C19.4988 20.5477 19.4988 20.9654 19.4726 21.3072C19.4453 21.6635 19.3863 21.9988 19.2349 22.3191C18.9628 22.8945 18.4996 23.3577 17.9242 23.6297C17.604 23.7811 17.2686 23.8401 16.9124 23.8674C16.5705 23.8936 16.1529 23.8936 15.6525 23.8936H15.6241H15.5956C15.0953 23.8936 14.6776 23.8936 14.3358 23.8674C13.9795 23.8401 13.6442 23.7811 13.3239 23.6297C12.7485 23.3577 12.2853 22.8945 12.0133 22.3191C11.8618 21.9988 11.8029 21.6635 11.7756 21.3072C11.7494 20.9654 11.7494 20.5477 11.7494 20.0474L11.7494 20.0189V3.87468L11.7494 3.84621C11.7494 3.34588 11.7494 2.92824 11.7756 2.58638C11.8029 2.2301 11.8618 1.8948 12.0133 1.57453C12.2853 0.999143 12.7485 0.535936 13.3239 0.263885C13.6442 0.112458 13.9795 0.0534876 14.3358 0.0261825C14.6776 -1.74642e-05 15.0953 -9.65595e-06 15.5956 -3.57628e-07ZM14.4504 1.5218C14.1806 1.54247 14.0507 1.57946 13.9651 1.61995C13.7035 1.74361 13.493 1.95416 13.3693 2.21569C13.3288 2.30133 13.2918 2.43125 13.2712 2.70101C13.2499 2.97871 13.2494 3.33855 13.2494 3.87468V20.0189C13.2494 20.555 13.2499 20.9149 13.2712 21.1926C13.2918 21.4623 13.3288 21.5923 13.3693 21.6779C13.493 21.9394 13.7035 22.15 13.9651 22.2736C14.0507 22.3141 14.1806 22.3511 14.4504 22.3718C14.7281 22.3931 15.0879 22.3936 15.6241 22.3936C16.1602 22.3936 16.52 22.3931 16.7977 22.3718C17.0675 22.3511 17.1974 22.3141 17.2831 22.2736C17.5446 22.15 17.7551 21.9394 17.8788 21.6779C17.9193 21.5923 17.9563 21.4623 17.977 21.1926C17.9982 20.9149 17.9987 20.555 17.9987 20.0189V3.87469C17.9987 3.33855 17.9982 2.97872 17.977 2.70101C17.9563 2.43125 17.9193 2.30133 17.8788 2.21569C17.7551 1.95416 17.5446 1.74361 17.2831 1.61995C17.1974 1.57946 17.0675 1.54247 16.7977 1.5218C16.52 1.50051 16.1602 1.5 15.6241 1.5C15.0879 1.5 14.7281 1.50051 14.4504 1.5218Z" fill="#E8EAED"/>
</svg>
