<svg width="26" height="27" viewBox="0 0 26 27" fill="none" xmlns="http://www.w3.org/2000/svg">
<path opacity="0.12" d="M2 1L15 8.5V8.5C17.6776 9.59539 19.0164 10.1431 19.6323 10.835C20.8758 12.2319 20.9853 14.304 19.8961 15.8243C19.3565 16.5773 18.0829 17.263 15.5357 18.6346L10.3138 21.4464C6.95408 23.2555 5.27422 24.16 3.95787 23.9631C2.81071 23.7915 1.79454 23.1303 1.17284 22.1511C0.459429 21.0274 0.605759 19.1251 0.89842 15.3205L2 1Z" fill="#E8EAED"/>
<path fill-rule="evenodd" clip-rule="evenodd" d="M2.04121 3.5066C1.99589 3.99539 1.9945 4.65211 1.99359 5.59716L1.97928 20.3625C1.97839 21.2817 1.97853 21.9191 2.02168 22.3946C2.06516 22.8736 2.14482 23.0651 2.21408 23.161C2.42098 23.4474 2.73941 23.6328 3.09058 23.6714C3.20813 23.6844 3.41401 23.6591 3.85214 23.4605C4.28696 23.2634 4.84141 22.949 5.64041 22.4946L12.4967 18.5956L12.5045 18.5911L12.5045 18.5912L18.2368 15.4213C19.0417 14.9762 19.5995 14.6669 19.9947 14.3985C20.3929 14.1281 20.5218 13.9655 20.5721 13.8584C20.7222 13.5385 20.7299 13.17 20.5933 12.844C20.5476 12.735 20.4256 12.5671 20.039 12.2802C19.6554 11.9955 19.1111 11.6631 18.3255 11.1848L5.71788 3.507C4.91073 3.01546 4.34944 2.67453 3.9086 2.45858C3.46317 2.24038 3.25374 2.20944 3.13573 2.21985C2.77895 2.25135 2.45282 2.43438 2.24007 2.72252C2.16969 2.81782 2.08701 3.01271 2.04121 3.5066ZM0.54762 3.36811C0.600333 2.79959 0.713309 2.26499 1.03336 1.83153C1.50141 1.19763 2.2189 0.794958 3.00382 0.725665C3.54055 0.678284 4.05574 0.860351 4.56848 1.11152C5.07859 1.36141 5.69867 1.73904 6.46541 2.20598L6.49807 2.22587L19.1057 9.90363L19.1382 9.9234C19.8835 10.3773 20.4875 10.7451 20.933 11.0757C21.382 11.409 21.7718 11.7754 21.9767 12.2641C22.2773 12.9811 22.2603 13.7919 21.9299 14.4957C21.7048 14.9755 21.3 15.3252 20.8374 15.6394C20.3785 15.9511 19.7597 16.2933 18.996 16.7156L18.9627 16.734L13.2344 19.9016L6.38192 23.7985L6.3489 23.8173C5.59079 24.2484 4.97649 24.5978 4.47143 24.8267C3.96237 25.0575 3.45311 25.2204 2.92655 25.1624C2.15396 25.0774 1.45343 24.6695 0.998231 24.0395C0.687987 23.6101 0.578337 23.0868 0.527817 22.5301C0.477696 21.9779 0.478389 21.2712 0.479245 20.3991L0.479282 20.3611L0.493586 5.59571L0.493623 5.55745C0.494482 4.65972 0.495177 3.93371 0.54762 3.36811Z" fill="#E8EAED"/>
</svg>
